Coordinates
version=1
nRows=19
nColumns=36
inDegrees=yes

Units are S.I. units (second, meters, Newtons, ...)
If the header above contains a line with 'inDegrees', this indicates whether rotational values are in degrees (yes) or radians (no).

endheader
time	pelvis_tilt	pelvis_list	pelvis_rotation	pelvis_tx	pelvis_ty	pelvis_tz	hip_flexion_r	hip_adduction_r	hip_rotation_r	knee_angle_r	knee_angle_r_beta	ankle_angle_r	subtalar_angle_r	mtp_angle_r	hip_flexion_l	hip_adduction_l	hip_rotation_l	knee_angle_l	knee_angle_l_beta	ankle_angle_l	subtalar_angle_l	mtp_angle_l	lumbar_extension	lumbar_bending	lumbar_rotation	arm_flex_r	arm_add_r	arm_rot_r	elbow_flex_r	pro_sup_r	arm_flex_l	arm_add_l	arm_rot_l	elbow_flex_l	pro_sup_l
      2.10000000	     -0.35911464	      5.45242751	     16.51191896	      0.70264342	      0.89612555	     -0.06116849	      2.29245395	      1.75080679	      3.82691448	     13.83166005	      0.24140801	     16.62855195	    -13.09709554	     -7.49999987	     22.54089339	     -0.73117047	     -6.34355700	     10.33031397	      0.18029799	     -1.45300677	    -12.65978434	     -7.49999987	     -7.14950445	      5.57774503	      3.92684962	     28.92124169	     -4.38298793	     59.61707038	    125.30067260	    105.99271662	     26.24421390	      2.65985037	     64.29273415	    117.68693826	    108.99649409
      2.11666670	     -0.30424161	      5.16988340	     16.60939202	      0.70259699	      0.89584303	     -0.06167569	      2.43634267	      2.09040223	      3.94469053	     14.10011141	      0.24609337	     16.64171184	    -13.33503550	     -7.49999987	     22.18177441	     -0.93636013	     -6.29126848	      9.50548667	      0.16590204	     -2.10119120	    -12.94739158	     -7.49999987	     -7.19055614	      5.88215846	      3.61333800	     28.93225836	     -4.34130374	     59.79823222	    125.04963306	    106.24362363	     26.06573661	      2.61074285	     63.89308451	    117.62682996	    108.96510586
      2.13333330	     -0.33972274	      4.87724383	     16.74508135	      0.70256971	      0.89513414	     -0.06197781	      2.69378928	      2.41470701	      4.02799253	     14.37289638	      0.25085436	     16.61259506	    -13.68401674	     -7.49999987	     22.15210444	     -1.19051818	     -6.38657546	      9.06434207	      0.15820261	     -2.35965715	    -13.00705982	     -7.49999987	     -7.11690313	      6.15478597	      3.40791689	     28.95315208	     -4.21702499	     60.08964378	    124.96238875	    106.30389348	     25.92586095	      2.51792411	     63.93169209	    117.84580882	    109.31294786
      2.15000000	     -0.28722194	      4.66459967	     16.91411086	      0.70236393	      0.89471559	     -0.06223928	      2.82741583	      2.64952394	      3.89062722	     14.61721354	      0.25511850	     16.76998765	    -13.60660257	     -7.49999987	     22.18361190	     -1.38696469	     -6.16655691	      8.89817675	      0.15530248	     -2.69445009	    -13.68223662	     -7.49999987	     -7.14542679	      6.36135807	      3.28060617	     29.04874045	     -4.00267600	     60.22474295	    124.93349744	    105.85684057	     25.80684891	      2.38808821	     64.21496740	    118.27539429	    109.40464115
      2.16666670	     -0.41684995	      4.46372888	     16.94954850	      0.70222829	      0.89490809	     -0.06216936	      3.16057632	      2.85017517	      4.08909727	     14.85605650	      0.25928710	     16.66710926	    -14.13085533	     -7.49999987	     22.54866295	     -1.62284016	     -6.23862785	      9.04301287	      0.15783035	     -2.50566532	    -13.76455655	     -7.49999987	     -6.96207466	      6.46755569	      3.42497824	     29.15270226	     -3.88681186	     60.34380337	    124.95872902	    104.61957049	     25.62213193	      2.09633710	     64.76620962	    118.83471008	    108.23454555
      2.18333330	     -0.48782456	      4.32380546	     17.03861168	      0.70204686	      0.89624349	     -0.06243983	      3.31995621	      2.94991915	      3.98026468	     14.94036814	      0.26075862	     16.67918147	    -13.98170893	     -7.49999987	     22.90248244	     -1.75869670	     -6.13009065	      9.33616008	      0.16294673	     -2.29008034	    -14.03129497	     -7.49999987	     -6.81917574	      6.55559821	      3.56065010	     29.27870260	     -3.79561661	     60.10969613	    124.88825248	    105.90140349	     25.30645624	      1.75672625	     64.93132738	    119.18603319	    109.61586161
      2.20000000	     -0.54619604	      4.25056897	     17.01190208	      0.70193518	      0.89802281	     -0.06251351	      3.36266180	      2.99818133	      4.03799795	     14.88426945	      0.25977951	     16.66859984	    -13.92031783	     -7.49999987	     23.16768179	     -1.88170816	     -6.22220794	      9.60235696	      0.16759274	     -2.02499490	    -14.04380389	     -7.49999987	     -6.71428553	      6.57395457	      3.87374458	     29.47287211	     -3.73280144	     59.80776020	    125.03077125	    105.62926221	     25.03763272	      1.42509724	     64.95964793	    119.54020938	    109.51864788
      2.21666670	     -0.57565610	      4.23202524	     16.99962612	      0.70183590	      0.89962263	     -0.06259713	      3.27191453	      2.99952433	      4.11858047	     14.66943731	      0.25602998	     16.62449245	    -13.88196385	     -7.49999987	     23.36638174	     -1.95014854	     -6.37270978	      9.85563638	      0.17201330	     -1.89525761	    -13.95628397	     -7.49999987	     -6.67773125	      6.53381896	      4.28908448	     29.75554699	     -3.59641729	     59.63590681	    125.24998350	    105.20414893	     24.87348812	      1.33068265	     64.79008616	    119.87358748	    109.31888520
      2.23333330	     -0.68855901	      4.22256565	     16.96658651	      0.70184270	      0.90101542	     -0.06265536	      3.24177245	      2.96905089	      4.26914959	     14.39846201	      0.25130057	     16.46033591	    -13.90619039	     -7.49999987	     23.64469420	     -1.98827327	     -6.50490304	     10.11020547	      0.17645637	     -1.67888789	    -13.81735249	     -7.49999987	     -6.58270406	      6.44450781	      4.76609770	     30.26263085	     -3.36957343	     59.78336645	    125.58136214	    105.09514485	     24.76944576	      1.34180395	     64.56887156	    120.23309023	    109.21612661
      2.25000000	     -0.87284039	      4.21762913	     16.93561075	      0.70196175	      0.90301744	     -0.06279473	      3.25199769	      2.90199518	      4.40298740	     14.07911130	      0.24572685	     16.30002180	    -13.79372225	     -7.49999987	     23.99602869	     -1.99114277	     -6.60990223	     10.38676735	      0.18128329	     -1.31814778	    -13.56662280	     -7.49999987	     -6.44687186	      6.28360916	      5.30698728	     30.84582531	     -3.15900022	     60.23839462	    126.00113263	    105.50346306	     24.75096113	      1.34514485	     64.50139816	    120.44695648	    109.38228229
      2.26666670	     -0.90598951	      4.28875764	     16.92391689	      0.70218404	      0.90626835	     -0.06288810	      2.94065945	      2.79358385	      4.57504360	     13.53262008	      0.23618878	     16.01086636	    -13.75797645	     -7.49999987	     24.03476179	     -1.92039845	     -6.58778977	     10.45552130	      0.18248327	     -1.08029606	    -13.32994813	     -7.49999987	     -6.54420505	      6.05574793	      5.68729445	     31.48012164	     -2.89170144	     61.06464040	    126.17401161	    104.89231696	     24.90369300	      1.19384568	     64.55345574	    120.39503921	    108.90931203
      2.28333330	     -1.01762894	      4.28633799	     16.88634214	      0.70246984	      0.90957914	     -0.06291718	      2.60062315	      2.71453329	      4.78122452	     12.73809071	      0.22232162	     15.56556656	    -13.64967564	     -7.49999987	     24.07457412	     -1.88774516	     -6.64006612	     10.35848728	      0.18078971	     -0.95054709	    -12.93147839	     -7.49999987	     -6.52489317	      5.83770604	      6.04667011	     31.87075195	     -2.78474597	     61.88387416	    126.34355888	    103.93248303	     25.12882524	      0.95428093	     64.48686601	    120.10755318	    107.81089442
      2.30000000	     -1.28003522	      4.18923893	     16.87211337	      0.70235174	      0.91152559	     -0.06320340	      2.43789640	      2.66847897	      4.95478476	     11.90659047	      0.20780921	     15.20911564	    -13.29430350	     -7.49999987	     24.28125324	     -1.88704701	     -6.74903041	     10.18961407	      0.17784231	     -0.66197719	    -12.20872330	     -7.49999987	     -6.26349949	      5.69624078	      6.38155171	     32.04428893	     -2.74323920	     62.17388029	    126.35960578	    105.19660876	     25.43753451	      0.64846926	     63.95067623	    119.58247879	    109.35547232
      2.31666670	     -1.40319875	      4.12063497	     16.95547971	      0.70164208	      0.91243710	     -0.06438146	      2.10261094	      2.61090846	      4.98017828	     10.96500896	      0.19137551	     14.68477325	    -13.00050006	     -7.49999987	     24.34530652	     -1.83291966	     -6.75888051	      9.92977719	      0.17330731	     -0.56709483	    -11.60321798	     -7.49999987	     -6.27070568	      5.63950623	      6.41476950	     32.46051694	     -2.75475881	     62.47726483	    126.39101426	    104.90686897	     25.83426802	      0.46912265	     62.93476871	    119.35893554	    108.97959845
      2.33333330	     -1.62278335	      4.03292434	     17.01558127	      0.70164327	      0.91248426	     -0.06618692	      1.96495197	      2.53947338	      5.05387761	     10.17114144	      0.17751991	     14.32789816	    -12.72547735	     -7.49999987	     24.56778962	     -1.75720314	     -6.70367306	      9.80117410	      0.17106276	     -0.40976104	    -11.19112377	     -7.49999987	     -6.12288198	      5.65474332	      6.60758395	     32.77788991	     -2.94650622	     62.21328258	    126.51661781	    105.22362583	     26.22907379	      0.58419008	     61.90704986	    119.21410827	    109.19171848
      2.35000000	     -1.71145424	      4.05618512	     17.05153532	      0.70354822	      0.91250379	     -0.06753428	      1.62436986	      2.39142568	      5.06171550	      9.38134190	      0.16373530	     14.18454055	    -12.31546644	     -7.49999987	     24.51466244	     -1.60603110	     -6.71319421	      9.61824504	      0.16787004	     -0.19177818	    -10.80763381	     -7.49999987	     -6.02430464	      5.64749649	      6.75694047	     33.08134107	     -3.01671339	     61.81706888	    126.30779316	    104.27316552	     26.51875475	      0.78439080	     61.13231119	    119.33241869	    109.59561150
      2.36666670	     -1.73915672	      4.13168209	     17.06983189	      0.70621876	      0.91283017	     -0.06763999	      1.14640716	      2.24236118	      5.22950512	      8.56212758	      0.14943732	     13.96112784	    -12.26108677	     -7.49999987	     24.26567201	     -1.44380628	     -6.68974288	      9.36457938	      0.16344274	     -0.19481753	    -10.69035860	     -7.49999987	     -5.94128606	      5.55482454	      6.96153466	     33.27551360	     -2.91281662	     61.47737069	    125.95260156	    103.34507237	     26.81347541	      0.94853383	     61.00549412	    119.62714929	    108.53562815
      2.38333330	     -1.78209243	      4.21205437	     17.08868093	      0.70787405	      0.91350277	     -0.06726063	      0.73454357	      2.08724174	      5.14684271	      7.88953650	      0.13769839	     13.98055337	    -11.85817425	     -7.49999987	     23.99761380	     -1.31664407	     -6.75408584	      9.13204667	      0.15938428	     -0.12969648	    -10.29419445	     -7.49999987	     -5.83334562	      5.42941790	      7.17127668	     33.48878762	     -2.65888535	     61.26653038	    125.53346868	    104.27440523	     27.03531678	      0.90230377	     61.13253256	    120.02844688	    109.44774271
      2.40000000	     -1.80544811	      4.28221926	     17.11232477	      0.70853361	      0.91426207	     -0.06732411	      0.34876602	      1.97935005	      5.16732771	      7.27901209	      0.12704273	     13.72214704	    -11.88325352	     -7.49999987	     23.69533507	     -1.21952367	     -6.76479096	      8.86857945	      0.15478591	     -0.20326524	    -10.13268583	     -7.49999987	     -5.82001161	      5.25698384	      7.34755118	     33.72868857	     -2.40483322	     61.16772867	    125.24861245	    104.07282956	     27.38322960	      0.84093401	     61.63033658	    120.51600787	    109.35200142
